<svg version="1.0" xmlns="http://www.w3.org/2000/svg" width="406px" height="131px" viewBox="0 0 5830 1710" preserveAspectRatio="xMidYMid meet">
<g id="l605VCvEVK2OIoIdL3YrgZU" fill="rgb(255,255,255)" style="transform: none; transform-origin: 50% 50% 0;"><g style="transform: none;"><path id="p19OrHBzXh" d="M1889 1296 c-15 -16 -10 -52 9 -69 17 -16 155 -17 1778 -17 967 0 1764 4 1770 8 19 12 25 47 12 65 -12 15 -146 17 -1786 19 -1110 2 -1777 -1 -1783 -6z"></path><path id="ptSrs3d5A" d="M3800 1090 c-30 -11 -59 -25 -64 -30 -20 -20 -36 -96 -36 -170 0 -91 18 -132 79 -175 41 -29 47 -30 144 -30 90 0 107 3 147 25 66 37 90 85 90 186 0 95 -26 157 -79 188 -51 29 -208 33 -281 6z m226 -111 c20 -19 24 -32 24 -81 0 -49 -4 -63 -25 -83 -21 -22 -33 -25 -93 -25 -55 0 -75 4 -96 21 -23 18 -26 27 -26 83 0 67 10 84 60 105 40 17 129 6 156 -20z"></path><path id="pKC5BqMVZ" d="M1890 1080 c-1 -5 -1 -91 -1 -190 0 -99 0 -184 1 -190 0 -5 24 -10 54 -10 62 0 66 5 66 85 0 51 1 53 31 59 17 3 55 6 84 6 66 0 80 -14 73 -78 -3 -26 -4 -53 -1 -59 6 -18 110 -18 114 -1 2 7 3 97 1 201 l-3 187 -55 0 -54 0 0 -63 c0 -36 -5 -68 -12 -75 -12 -12 -134 -17 -162 -6 -12 5 -16 20 -16 59 0 80 -4 85 -66 85 -30 0 -54 -4 -54 -10z"></path><path id="pocfrjntO" d="M2385 1077 c-3 -7 -4 -96 -3 -197 l3 -185 190 0 190 0 0 45 0 45 -127 5 c-69 3 -130 8 -133 12 -4 4 -5 14 -2 22 5 12 28 16 104 18 l98 3 3 48 3 47 -90 0 c-98 0 -121 5 -121 26 0 11 26 14 130 14 128 0 130 0 136 24 3 13 4 37 2 52 l-3 29 -188 3 c-147 2 -189 0 -192 -11z"></path><path id="ptOFjDMOF" d="M2822 893 l3 -198 55 0 55 0 3 143 3 142 123 0 c140 0 149 4 144 67 l-3 38 -193 3 -192 2 2 -197z"></path><path id="pyDJhZUgI" d="M3270 890 l0 -200 55 0 55 0 0 145 0 144 133 3 132 3 3 53 3 52 -190 0 -191 0 0 -200z"></path></g></g><g id="l1rB3LAyb9RfR3ryV0NThJ9" fill="rgb(254,88,88)" style="transform: none; transform-origin: 50% 50% 0;">
<g style="transform: none;"><path id="pgAyZ6tLT" d="M1238 1443 c-100 -103 -124 -193 -85 -313 28 -84 89 -184 114 -188 19 -3 22 2 25 40 l3 43 42 -61 c45 -65 117 -134 141 -134 12 0 13 9 6 47 -5 27 -8 64 -7 84 1 38 32 107 57 128 17 14 15 15 31 -34 2 -8 13 -15 24 -15 14 0 25 17 44 69 56 151 46 231 -38 315 -28 28 -63 57 -78 65 -42 22 -50 5 -33 -70 12 -50 13 -72 4 -102 -11 -36 -12 -37 -31 -20 -18 17 -20 17 -38 -6 -10 -12 -24 -41 -30 -62 -7 -21 -16 -39 -20 -39 -5 0 -20 17 -34 38 -29 43 -33 102 -16 191 6 29 11 60 11 67 0 30 -38 11 -92 -43z"></path><path id="p5fY6CKwd" d="M545 1430 c-128 -34 -155 -45 -155 -62 0 -7 22 -94 49 -193 27 -99 66 -243 86 -320 46 -175 72 -236 111 -254 16 -7 36 -17 43 -20 8 -4 19 -21 23 -37 11 -41 -12 -56 -82 -52 -53 3 -56 5 -76 43 -12 22 -61 186 -109 365 -48 179 -89 328 -92 333 -8 13 -33 7 -33 -9 0 -17 16 -79 107 -414 66 -247 79 -285 106 -321 21 -29 63 -49 104 -49 l24 0 -27 -35 c-18 -24 -24 -39 -17 -46 15 -15 34 -2 78 51 43 53 54 58 221 103 62 17 96 22 107 15 25 -14 317 6 327 22 4 7 2 34 -5 59 -8 25 -19 65 -25 89 -8 31 -16 42 -30 42 -28 0 -262 -119 -281 -143 -16 -20 -85 -47 -120 -47 -11 0 -19 12 -23 34 -5 27 -1 42 19 72 33 48 32 83 -5 219 -17 61 -44 162 -61 225 -29 106 -83 301 -95 343 -7 24 -38 21 -169 -13z"></path><path id="p9pOzHEsi" d="M5444 1230 c-6 -6 -630 -11 -1749 -13 l-1740 -2 1740 -2 c1060 -2 1746 1 1755 7 8 5 12 11 9 14 -3 3 -10 1 -15 -4z"></path></g></g>
</svg>